# This file uses centimeters as units for non-parametric coordinates.

mtllib test.mtl
g default
v 7.116087 0.000000 2.998160
v 5.783777 0.000000 0.522335
v -6.194713 0.000000 0.089017
v -6.194713 0.000000 2.998160
v -0.088883 0.000000 0.522335
v 0.955557 0.000000 2.998160
v 5.470727 0.000000 0.025299
v -0.334293 0.000000 -2.998160
v -6.194713 0.000000 -2.998160
v -6.194713 0.000000 -0.594543
v -0.334293 0.000000 0.025299
vt 3.254500 0.751400
vt 2.739000 -0.206700
vt -1.896200 -0.374300
vt -1.896200 0.751400
vt 0.466500 -0.206700
vt 0.870600 0.751400
vt 2.617800 -0.399000
vt 0.371500 -1.568900
vt -1.896200 -1.568900
vt -1.896200 -0.638800
vt 0.371500 -0.399000
vn 0.000000 1.000000 0.000000
vn 0.000000 1.000000 0.000000
vn 0.000000 1.000000 0.000000
vn 0.000000 1.000000 0.000000
vn 0.000000 1.000000 0.000000
vn 0.000000 1.000000 0.000000
vn 0.000000 1.000000 0.000000
vn 0.000000 1.000000 0.000000
vn 0.000000 1.000000 0.000000
vn 0.000000 1.000000 0.000000
vn 0.000000 1.000000 0.000000
vn 0.000000 1.000000 0.000000
vn 0.000000 1.000000 0.000000
vn 0.000000 1.000000 0.000000
vn 0.000000 1.000000 0.000000
vn 0.000000 1.000000 0.000000
vn 0.000000 1.000000 0.000000
vn 0.000000 1.000000 0.000000
vn 0.000000 1.000000 0.000000
vn 0.000000 1.000000 0.000000
vn 0.000000 1.000000 0.000000
vn 0.000000 1.000000 0.000000
vn 0.000000 1.000000 0.000000
vn 0.000000 1.000000 0.000000
vn 0.000000 1.000000 0.000000
vn 0.000000 1.000000 0.000000
vn 0.000000 1.000000 0.000000
vn 0.000000 1.000000 0.000000
vn 0.000000 1.000000 0.000000
vn 0.000000 1.000000 0.000000
s off
g stairscase:Mesh14
usemtl stairscase:FloorTiles
f 2/2/1 5/5/2 6/6/3
f 2/2/4 6/6/5 1/1/6
f 5/5/7 3/3/8 4/4/9
f 5/5/10 4/4/11 6/6/12
f 8/8/13 9/9/14 10/10/15
f 8/8/16 10/10/17 11/11/18
f 7/7/19 11/11/20 5/5/21
f 7/7/22 5/5/23 2/2/24
f 11/11/25 10/10/26 3/3/27
f 11/11/28 3/3/29 5/5/30
g default
v -5.283824 11.280500 -2.998160
v -5.283824 0.080904 -2.998160
v -3.427803 0.080904 -2.998160
v -3.418953 11.280500 -2.998160
vt 0.305800 -1.243100
vt 0.305800 2.464700
vt 0.860600 2.464700
vt 0.863300 -1.243100
vn 0.000000 0.000000 1.000000
vn 0.000000 0.000000 1.000000
vn 0.000000 0.000000 1.000000
vn 0.000000 0.000000 1.000000
vn 0.000000 0.000000 1.000000
vn 0.000000 0.000000 1.000000
s off
g stairscase:Mesh13
usemtl stairscase:Wallpaper
f 12/12/31 13/13/32 14/14/33
f 12/12/34 14/14/35 15/15/36
g default
v -2.292943 5.073100 3.046980
v 4.826697 5.073100 3.046980
v 4.826697 -0.036900 3.046980
v -2.292943 -0.036900 3.046980
vt 0.375000 0.750000
vt 0.625000 0.750000
vt 0.625000 0.500000
vt 0.375000 0.500000
vn 0.000000 0.000000 -1.000000
vn 0.000000 0.000000 -1.000000
vn 0.000000 0.000000 -1.000000
vn 0.000000 0.000000 -1.000000
vn 0.000000 0.000000 -1.000000
vn 0.000000 0.000000 -1.000000
s off
g stairscase:Mesh22
usemtl stairscase:leftLight
f 16/16/37 17/17/38 18/18/39
f 16/16/40 18/18/41 19/19/42
g default
v 5.432917 1.579380 -0.035007
v 5.432917 -0.041607 -0.035007
v -0.334293 -0.041607 -0.035007
v -0.334293 1.579380 -0.035007
v -0.334293 1.579380 0.002240
v -0.334293 -0.041607 0.002240
v 5.432917 -0.041607 0.002240
v 5.432917 1.579380 0.002240
vt 0.000000 1.000000
vt 0.000000 1.000000
vt 0.000000 1.000000
vt 0.000000 1.000000
vt 0.000000 1.000000
vt 0.000000 1.000000
vt 0.000000 1.000000
vt 0.000000 1.000000
vn 0.000000 0.000000 -1.000000
vn 0.000000 0.000000 -1.000000
vn 0.000000 0.000000 -1.000000
vn 0.000000 0.000000 -1.000000
vn 0.000000 0.000000 -1.000000
vn 0.000000 0.000000 -1.000000
vn 0.000000 0.000000 1.000000
vn 0.000000 0.000000 1.000000
vn 0.000000 0.000000 1.000000
vn 0.000000 0.000000 1.000000
vn 0.000000 0.000000 1.000000
vn 0.000000 0.000000 1.000000
s off
g stairscase:Mesh15
usemtl stairscase:Glass
f 20/20/43 21/21/44 22/22/45
f 20/20/46 22/22/47 23/23/48
f 24/24/49 25/25/50 26/26/51
f 24/24/52 26/26/53 27/27/54
g default
v 8.444504 5.859411 3.232161
v 8.444504 0.083903 3.533378
v 8.788504 0.083903 -2.821738
v -6.530366 0.083903 -2.821738
v 8.912520 5.074710 -2.821738
v -6.493836 0.028273 3.174578
v 8.575868 0.083853 3.174582
v -6.172662 0.083903 -2.818738
v -6.172662 0.083903 -0.421122
v 8.444504 5.873176 -2.818738
v 8.202464 5.620550 -3.030360
v -6.240351 5.620550 -2.749073
v 8.877881 5.620550 3.171582
v 8.444504 0.083903 -2.818738
v -6.234378 5.630221 -2.821738
v -6.172662 5.074710 -0.421121
v -6.172662 5.074710 -2.818738
v -6.222116 5.664454 3.174582
v 8.658872 5.610287 3.174582
v -6.613694 5.620550 3.171582
vt 1.074100 -4.194400
vt 1.074100 0.181200
vt 5.489500 5.441600
vt 1.289600 5.441600
vt 6.546600 1.066000
vt 1.021700 0.181300
vt 3.013400 0.181200
vt 2.532200 5.441600
vt 1.074100 5.441600
vt 2.532200 -4.194400
vt 1.018100 0.335500
vt -3.654400 0.335500
vt 1.018100 2.880800
vt 2.532200 0.181200
vt 1.289600 1.066000
vt 1.074100 1.066000
vt 2.532200 1.066000
vt 1.021700 -4.194400
vt 3.013400 -4.194400
vt -3.654400 2.880800
vn -1.000000 0.000000 0.000000
vn -1.000000 0.000000 0.000000
vn -1.000000 0.000000 0.000000
vn -1.000000 0.000000 0.000000
vn -1.000000 0.000000 0.000000
vn -1.000000 0.000000 0.000000
vn 0.000000 0.000000 1.000000
vn 0.000000 0.000000 1.000000
vn 0.000000 0.000000 1.000000
vn 0.000000 0.000000 1.000000
vn 0.000000 0.000000 1.000000
vn 0.000000 0.000000 1.000000
vn 1.000000 0.000000 0.000000
vn 1.000000 0.000000 0.000000
vn 1.000000 0.000000 0.000000
vn 1.000000 0.000000 0.000000
vn 1.000000 0.000000 0.000000
vn 1.000000 0.000000 0.000000
vn 0.000000 0.000000 -1.000000
vn 0.000000 0.000000 -1.000000
vn 0.000000 0.000000 -1.000000
vn 0.000000 0.000000 -1.000000
vn 0.000000 0.000000 -1.000000
vn 0.000000 0.000000 -1.000000
vn 0.000000 -1.000000 0.000000
vn 0.000000 -1.000000 0.000000
vn 0.000000 -1.000000 0.000000
vn 0.000000 -1.000000 0.000000
vn 0.000000 -1.000000 0.000000
vn 0.000000 -1.000000 0.000000
s off
g stairscase:Mesh17
usemtl stairscase:Wall
f 29/29/55 28/28/56 37/37/57
f 29/29/58 37/37/59 41/41/60
f 42/42/61 31/31/62 30/30/63
f 42/42/64 30/30/65 32/32/66
f 43/43/67 36/36/68 35/35/69
f 43/43/70 35/35/71 44/44/72
f 33/33/73 45/45/74 46/46/75
f 33/33/76 46/46/77 34/34/78
f 38/38/79 40/40/80 47/47/81
f 38/38/82 47/47/83 39/39/84
g default
v -5.278963 5.620550 0.097700
v -5.284003 5.617550 0.094700
v -5.281483 5.617550 0.091700
v -5.278963 5.074710 2.998160
v -5.278963 -0.020155 2.998160
v -5.284003 -0.020182 2.998160
v -5.284003 5.074710 2.998160
v -3.441713 5.620550 2.995160
v -2.761323 5.620550 2.995160
v -2.761323 5.617550 2.998160
v -3.441713 5.617550 2.998160
v -2.761323 5.074710 2.998160
v -2.761323 -0.020155 2.998160
v -2.766003 5.620550 -2.998160
v -2.766003 5.620550 0.024097
v -5.278963 5.620550 -0.596984
v -5.281483 5.620550 -2.995160
v -3.441343 5.620550 -2.998160
v -3.441713 5.617550 2.998160
v -2.761323 5.617550 2.998160
v -2.761323 5.080710 2.998160
v -5.278963 5.080710 2.998160
v -5.278963 5.617550 2.998160
v -2.766003 5.620550 0.024097
v -2.766003 5.620550 -2.998160
v -2.763294 5.624070 -2.998160
v -2.763294 5.622200 -0.006691
v -2.765643 5.620550 0.030314
v -5.284003 5.620550 -0.592102
v -2.761323 5.074710 2.998160
v -5.278963 5.074710 2.998160
v -5.278963 5.620550 0.097700
v -2.761323 5.620550 0.089152
v -2.761323 5.620550 2.995160
v -3.441713 5.620550 2.995160
v -5.281483 5.622670 2.996030
v -5.278963 5.617550 2.998160
v -5.284003 5.617550 2.998160
v -5.281483 5.622670 2.996030
v -3.441713 5.617550 2.998160
v -5.278963 5.617550 2.998160
v -5.281483 5.622670 2.996030
v -3.441713 5.620550 2.995160
v -5.284003 5.074710 2.998160
v -5.284003 5.080710 2.998160
v -2.756284 5.080710 2.998160
v -2.756284 5.074710 2.998160
v -2.756284 5.617550 2.998160
v -2.761323 5.620550 2.995160
v -2.756284 5.620550 2.995160
v -2.756284 5.617550 2.998160
v -2.761323 5.617550 2.998160
v -3.441713 5.620550 2.995160
v -3.441713 5.617550 2.998160
v -3.441713 5.617550 2.998160
vt 0.000000 1.000000
vt 0.000000 1.000000
vt 0.000000 1.000000
vt 0.001000 0.996900
vt 0.681600 -4.191800
vt 0.682300 -4.197000
vt 0.000400 0.996900
vt 0.000500 1.001200
vt 0.000600 1.001600
vt 0.000000 1.000000
vt 0.000000 1.000000
vt 0.734700 0.184400
vt 0.000700 0.994800
vt -0.001900 0.998400
vt -1.746300 -0.267100
vt 0.679500 -2.368100
vt 0.000900 0.995800
vt -0.483900 0.587500
vt 0.002800 0.999500
vt 0.729900 1.062800
vt 0.004000 1.000000
vt 0.678000 0.590100
vt 0.003600 0.997800
vt -1.746300 -0.267100
vt -0.001900 0.998400
vt 0.000000 1.000000
vt -1.730300 -0.252000
vt -1.748500 -0.268000
vt 0.682300 -2.373800
vt 0.000700 0.999600
vt 0.681600 0.587900
vt 0.000600 1.001600
vt 0.734900 2.881400
vt 0.000600 1.001600
vt 0.000500 1.001200
vt 0.000000 1.000000
vt 0.003600 0.997800
vt 0.003800 0.997700
vt 0.000000 1.000000
vt 0.002800 0.999500
vt 0.003600 0.997800
vt 0.000000 1.000000
vt 0.000500 1.001200
vt 0.682300 0.587500
vt 0.678500 0.589700
vt 0.004100 1.000400
vt 0.000000 1.000000
vt 0.731600 1.063100
vt 0.000600 1.001600
vt 0.000800 1.001900
vt 0.000000 1.000000
vt 0.000000 1.000000
vt 0.000500 1.001200
vt 0.000000 1.000000
vt 0.002800 0.999500
vn 0.352443 -0.887773 0.296046
vn 0.352443 -0.887773 0.296046
vn 0.352443 -0.887773 0.296046
vn 0.000000 0.000000 -1.000000
vn 0.000000 0.000000 -1.000000
vn 0.000000 0.000000 -1.000000
vn 0.000000 0.000000 -1.000000
vn 0.000000 0.000000 -1.000000
vn 0.000000 0.000000 -1.000000
vn 0.000000 -0.707157 -0.707057
vn 0.000000 -0.707157 -0.707057
vn 0.000000 -0.707157 -0.707057
vn 0.000000 -0.707157 -0.707057
vn 0.000000 -0.707157 -0.707057
vn 0.000000 -0.707157 -0.707057
vn 0.000000 0.000000 -1.000000
vn 0.000000 0.000000 -1.000000
vn 0.000000 0.000000 -1.000000
vn 0.000000 0.000000 -1.000000
vn 0.000000 0.000000 -1.000000
vn 0.000000 0.000000 -1.000000
vn 0.000000 -1.000000 0.000000
vn 0.000000 -1.000000 0.000000
vn 0.000000 -1.000000 0.000000
vn 0.000000 -1.000000 0.000000
vn 0.000000 -1.000000 0.000000
vn 0.000000 -1.000000 0.000000
vn 0.000000 -1.000000 0.000000
vn 0.000000 -1.000000 0.000000
vn 0.000000 -1.000000 0.000000
vn 0.000000 0.000000 -1.000000
vn 0.000000 0.000000 -1.000000
vn 0.000000 0.000000 -1.000000
vn 0.000000 0.000000 -1.000000
vn 0.000000 0.000000 -1.000000
vn 0.000000 0.000000 -1.000000
vn 0.000000 0.000000 -1.000000
vn 0.000000 0.000000 -1.000000
vn 0.000000 0.000000 -1.000000
vn 0.689186 -0.724585 -0.000200
vn 0.689186 -0.724585 -0.000200
vn 0.689186 -0.724585 -0.000200
vn 0.689186 -0.724585 -0.000200
vn 0.689186 -0.724585 -0.000200
vn 0.689186 -0.724585 -0.000200
vn 0.000000 -1.000000 0.000000
vn 0.000000 -1.000000 0.000000
vn 0.000000 -1.000000 0.000000
vn 0.000000 -1.000000 0.000000
vn 0.000000 -1.000000 0.000000
vn 0.000000 -1.000000 0.000000
vn 0.000000 0.000000 -1.000000
vn 0.000000 0.000000 -1.000000
vn 0.000000 0.000000 -1.000000
vn 0.000000 0.000000 -1.000000
vn 0.000000 0.000000 -1.000000
vn 0.000000 0.000000 -1.000000
vn -0.000400 -1.000000 0.000300
vn -0.000400 -1.000000 0.000300
vn -0.000400 -1.000000 0.000300
vn -0.000400 -1.000000 0.000300
vn -0.000400 -1.000000 0.000300
vn -0.000400 -1.000000 0.000300
vn -0.000400 -1.000000 0.000300
vn -0.000400 -1.000000 0.000300
vn -0.000400 -1.000000 0.000300
vn 0.000000 -0.382605 -0.923912
vn 0.000000 -0.382605 -0.923912
vn 0.000000 -0.382605 -0.923912
vn -0.000500 -0.533500 -0.845800
vn -0.000500 -0.533500 -0.845800
vn -0.000500 -0.533500 -0.845800
vn -0.000500 -0.533500 -0.845800
vn -0.000500 -0.533500 -0.845800
vn -0.000500 -0.533500 -0.845800
vn 0.000000 0.000000 -1.000000
vn 0.000000 0.000000 -1.000000
vn 0.000000 0.000000 -1.000000
vn 0.000000 0.000000 -1.000000
vn 0.000000 0.000000 -1.000000
vn 0.000000 0.000000 -1.000000
vn 0.000000 0.000000 -1.000000
vn 0.000000 0.000000 -1.000000
vn 0.000000 0.000000 -1.000000
vn 0.000000 0.000000 -1.000000
vn 0.000000 0.000000 -1.000000
vn 0.000000 0.000000 -1.000000
vn 0.000000 0.000000 -1.000000
vn 0.000000 0.000000 -1.000000
vn 0.000000 0.000000 -1.000000
vn 0.000000 0.000000 -1.000000
vn 0.000000 0.000000 -1.000000
vn 0.000000 0.000000 -1.000000
vn 0.000000 -0.707107 -0.707107
vn 0.000000 -0.707107 -0.707107
vn 0.000000 -0.707107 -0.707107
vn 0.000000 -0.707107 -0.707107
vn 0.000000 -0.707107 -0.707107
vn 0.000000 -0.707107 -0.707107
vn 0.000000 0.000000 1.000000
vn 0.000000 0.000000 1.000000
vn 0.000000 0.000000 1.000000
s off
g stairscase:Mesh18
usemtl stairscase:Wall
f 48/48/85 49/49/86 50/50/87
f 51/51/88 52/52/89 53/53/90
f 51/51/91 53/53/92 54/54/93
f 55/55/94 56/56/95 57/57/96
f 55/55/97 57/57/98 58/58/99
f 51/51/100 59/59/101 60/60/102
f 51/51/103 60/60/104 52/52/105
f 61/61/106 62/62/107 63/63/108
f 61/61/109 63/63/110 64/64/111
f 61/61/112 64/64/113 65/65/114
f 66/66/115 67/67/116 68/68/117
f 66/66/118 68/68/119 69/69/120
f 66/66/121 69/69/122 70/70/123
f 71/71/124 72/72/125 73/73/126
f 71/71/127 73/73/128 74/74/129
f 63/63/130 62/62/131 75/75/132
f 63/63/133 75/75/134 76/76/135
f 69/69/136 68/68/137 77/77/138
f 69/69/139 77/77/140 78/78/141
f 79/79/142 80/80/143 81/81/144
f 79/79/145 81/81/146 82/82/147
f 79/79/148 82/82/149 83/83/150
f 84/84/151 85/85/152 86/86/153
f 87/87/154 88/88/155 89/89/156
f 87/87/157 89/89/158 90/90/159
f 69/69/160 78/78/161 91/91/162
f 69/69/163 91/91/164 92/92/165
f 68/68/166 93/93/167 94/94/168
f 68/68/169 94/94/170 77/77/171
f 68/68/172 67/67/173 95/95/174
f 68/68/175 95/95/176 93/93/177
f 96/96/178 97/97/179 98/98/180
f 96/96/181 98/98/182 99/99/183
f 100/100/184 102/101/185 101/102/186
g default
v -6.289625 5.503054 -0.292536
v -6.289625 5.414652 3.093800
v -6.289625 -0.228079 3.093800
v -6.289625 -0.228079 -0.326775
vt 0.375000 0.750000
vt 0.625000 0.750000
vt 0.625000 0.500000
vt 0.375000 0.500000
vn 1.000000 0.000000 0.000000
vn 1.000000 0.000000 0.000000
vn 1.000000 0.000000 0.000000
vn 1.000000 0.000000 0.000000
vn 1.000000 0.000000 0.000000
vn 1.000000 0.000000 0.000000
s off
g stairscase:Mesh23
usemtl stairscase:backLight
f 103/103/187 104/104/188 105/105/189
f 103/103/190 105/105/191 106/106/192
